<svg width="3160" height="560" viewBox="0 0 3160 560" fill="none" xmlns="http://www.w3.org/2000/svg">
<g clip-path="url(#clip0_102_5565)">
<path d="M1294.7 560L1202.74 539.598C1295.4 523.065 1339.8 424.221 1339.8 336.985C1339.8 282.814 1331.06 245.528 1270.92 245.528C1219.18 245.528 1130.37 270.151 1081.42 282.462L1107.29 189.246H1290.85C1391.2 189.246 1441.54 259.95 1441.54 355.98C1441.54 452.01 1386.3 537.136 1294.7 560ZM1242.95 138.593L1273.02 88.6432L1148.9 16.5327C1177.57 7.03518 1206.94 0 1237.01 0C1297.84 0 1357.63 36.2312 1371.97 98.1407L1242.95 138.593Z" fill="#FB2813"/>
<path d="M1762.86 389.396L1700.62 497.738C1683.49 492.813 1666.36 481.909 1652.72 471.708C1583.15 416.833 1561.47 323.969 1561.47 238.492C1561.47 196.632 1566.36 154.773 1573.71 113.617L1643.28 97.7881L1697.83 402.763L1762.51 389.748L1762.86 389.396ZM2032.43 411.205L1932.08 357.034L1977.19 347.537L1921.24 161.456C1983.48 187.487 2065.99 249.396 2065.99 325.024C2065.99 356.683 2051.66 386.934 2032.43 411.557V411.205Z" fill="#FB2813"/>
<path d="M2552.68 247.638L2460.03 262.061C2467.02 298.292 2471.57 335.578 2471.57 372.513C2471.57 379.9 2470.87 387.638 2470.87 395.025L2340.46 368.995L2394.3 342.262L2374.02 275.076L2166.69 307.437L2185.92 209.297L2210.39 234.623L2354.44 212.111L2334.51 148.442L2154.45 175.176L2173.68 77.7389L2198.85 102.362L2314.93 84.4223L2295 21.4575L2371.57 22.8646C2381.01 38.6937 2389.4 55.9299 2396.75 72.1108L2505.13 55.5781L2514.57 120.653L2422.62 134.372C2430.66 155.829 2438.35 176.935 2444.3 198.392L2542.54 183.267L2552.68 247.638ZM2498.49 464.674L2483.46 542.412C2440.45 549.447 2393.25 551.206 2350.25 551.206C2281.37 551.206 2181.02 531.156 2181.02 443.568C2181.02 405.226 2213.89 372.865 2246.4 359.146V465.025H2498.14L2498.49 464.674Z" fill="#FB2813"/>
<path d="M2789.39 336.986C2774.35 389.046 2732.05 462.564 2671.21 462.564C2664.57 462.564 2657.57 461.157 2650.93 459.749L2612.82 409.096L2789.39 336.986ZM2876.1 188.192L2896.38 134.021L2756.52 52.4128C2785.19 42.9153 2819.46 37.9907 2849.87 37.9907C2920.15 37.9907 2975.39 67.5385 2992.52 141.056L2875.75 188.543L2876.1 188.192ZM2879.59 528.694L2871.55 527.991L2799.88 451.659H2884.49C2889.38 429.85 2891.13 406.986 2891.13 384.473C2891.13 336.986 2878.89 282.111 2861.76 238.141C2936.93 246.935 2971.55 323.971 2971.55 392.564C2971.55 449.548 2947.77 531.157 2879.59 528.342V528.694ZM3130.63 473.116L3035.18 457.287L3084.48 415.428L3037.28 300.051C3089.02 304.976 3160 335.579 3160 398.895C3160 424.222 3148.46 454.473 3130.63 473.116Z" fill="#FB2813"/>
<path d="M22.0269 242.714L187.404 153.719C196.844 148.442 208.033 147.387 218.522 150.553L367.466 196.281C389.144 202.965 401.381 225.829 394.738 247.638L393.339 252.211C386.696 274.02 363.97 286.332 342.292 279.648L290.547 263.819C268.869 257.136 246.143 269.447 239.5 291.256C232.857 313.065 245.094 335.93 266.771 342.613L377.606 376.382C388.095 379.548 399.283 378.492 408.723 373.216L507.32 320.101C527.249 309.548 552.073 316.935 562.562 336.985L564.311 340.503C574.8 360.553 567.457 385.528 547.528 396.08L406.975 471.709C397.535 476.985 386.346 478.04 375.857 474.874C375.857 474.874 275.512 479.447 174.468 431.96C73.0736 384.121 3.84592 281.759 3.84592 281.759C-5.24458 260.653 1.74812 253.266 22.0269 242.362V242.714Z" fill="#FB2813"/>
<path d="M988.768 360.201L823.39 449.196C813.95 454.473 802.762 455.528 792.273 452.362L643.328 406.634C621.651 399.95 609.414 377.086 616.057 355.277L617.455 350.704C624.098 328.895 646.825 316.583 668.502 323.267L720.248 339.096C741.925 345.779 764.652 333.468 771.295 311.659C777.938 289.85 765.7 266.985 744.023 260.302L633.189 226.533C622.7 223.367 611.511 224.422 602.071 229.699L503.474 282.814C483.545 293.367 458.721 285.98 448.232 265.93L446.484 262.412C435.995 242.362 443.337 217.387 463.266 206.835L603.82 131.206C613.26 125.93 624.448 124.875 634.937 128.041C634.937 128.041 735.282 123.468 836.327 170.955C937.371 218.443 1006.95 320.804 1006.95 320.804C1016.04 341.91 1009.05 349.297 988.768 360.201Z" fill="#F39900"/>
</g>
<defs>
<clipPath id="clip0_102_5565">
<rect width="3160" height="560" fill="white"/>
</clipPath>
</defs>
</svg>
